<svg width="16" height="16" viewBox="0 0 16 16" fill="none" xmlns="http://www.w3.org/2000/svg">
<path fill-rule="evenodd" clip-rule="evenodd" d="M13.5983 2.28512C10.4422 -0.806764 5.37711 -0.754645 2.28522 2.40153C-0.806659 5.5577 -0.75454 10.6228 2.40163 13.7146C5.55781 16.8065 10.6229 16.7544 13.7147 13.5982C16.8066 10.4421 16.7545 5.377 13.5983 2.28512ZM7.28276 11.1894C7.28703 11.6036 7.62625 11.9359 8.04044 11.9317C8.45463 11.9274 8.78695 11.5882 8.78268 11.174L8.75766 8.74212L11.1895 8.7171C11.6037 8.71284 11.936 8.37361 11.9318 7.95942C11.9275 7.54523 11.5883 7.21292 11.1741 7.21718L8.74223 7.2422L8.7172 4.81035C8.71294 4.39616 8.37372 4.06385 7.95953 4.06811C7.54533 4.07237 7.21302 4.41159 7.21728 4.82578L7.24231 7.25764L4.81045 7.28266C4.39626 7.28692 4.06395 7.62614 4.06821 8.04034C4.07247 8.45453 4.4117 8.78684 4.82589 8.78258L7.25774 8.75756L7.28276 11.1894Z" fill="#0F172A"/>
</svg>
